<?xml version="1.0" encoding="utf-8"?>
<!-- Generator: Adobe Illustrator 16.0.0, SVG Export Plug-In . SVG Version: 6.00 Build 0)  -->
<!DOCTYPE svg PUBLIC "-//W3C//DTD SVG 1.1//EN" "http://www.w3.org/Graphics/SVG/1.1/DTD/svg11.dtd" [
	<!ENTITY ns_flows "http://ns.adobe.com/Flows/1.0/">
	<!ENTITY ns_extend "http://ns.adobe.com/Extensibility/1.0/">
	<!ENTITY ns_ai "http://ns.adobe.com/AdobeIllustrator/10.0/">
	<!ENTITY ns_graphs "http://ns.adobe.com/Graphs/1.0/">
]>
<svg version="1.1" id="Layer_1" xmlns:x="&ns_extend;" xmlns:i="&ns_ai;" xmlns:graph="&ns_graphs;"
	 xmlns="http://www.w3.org/2000/svg" xmlns:xlink="http://www.w3.org/1999/xlink" xmlns:a="http://ns.adobe.com/AdobeSVGViewerExtensions/3.0/"
	 x="0px" y="0px" width="864px" height="864px" viewBox="0 0 864 864" enable-background="new 0 0 864 864" xml:space="preserve">
<path fill-rule="evenodd" clip-rule="evenodd" d="M483.854,149.097c0-2.137,0-3.764,0-4.604c-2.129-1.38-3.879-2.514-5.627-3.648
	c1.49-1.255,2.98-2.51,5.57-4.692c0.101-1.758,0.297-5.214,0.531-9.32c3.956,1.098,7.654,1.909,11.193,3.169
	c3.248,1.158,6.205,3.312,9.511,4.078c3.053,0.706,6.397,0.15,9.595,0.15c-2.975,4.834-11.717,8.452-17.809,7.448
	c-1.773-0.292-3.624-0.547-5.391-0.361c-4.513,0.476-5.788,2.723-5.095,7.485c2.489,17.106,4.128,34.337,6.646,51.438
	c3.607,24.504,8.535,48.755,15.959,72.431c1.285,4.1,2.66,8.215,4.488,12.09c3.045,6.454-2.756,18.183-9.108,21.294
	c-1.772,0.868,1.759-8.458,0-7.73c0,7.346,0,14.609,0,20.894c3.136,0.751,6.427,0.959,9.022,2.411
	c1.253,0.702,1.59,3.729,1.664,5.728c0.301,8.158,0.23,16.33,0.534,24.488c0.108,2.91-0.755,4.461-3.551,5.618
	c-5.301,2.194-8.659,11.365-6.28,16.41c0.3,0.636,1.121,1.124,1.809,1.464c5.679,2.812,11.61,3.74,18.872,2.273
	c1.303-16.71,2.609-33.467,3.966-50.863c4.176,0.808,8.835,1.708,13.494,2.609c0.085,0.438,0.169,0.877,0.254,1.316
	c-2.499,0.455-4.999,1.281-7.498,1.28c-4.154-0.001-6.023,1.156-5.396,5.812c3.176,23.542,6.218,47.104,9.015,70.695
	c0.33,2.789-1.117,5.792-1.763,8.692c-0.69,3.103-0.595,5.469,3.511,6.099c1.253,0.192,2.746,2.148,3.218,3.593
	c4.821,14.792,9.455,29.646,14.587,45.894c16.698-40.321,23.714-81.336,24.795-124.551c6.915,2.198,12.824,3.411,18.123,5.915
	c8.217,3.883,16.261,6.795,25.472,3.184c-5.686,6.163-12.401,10.024-20.767,10.573c-5.479,0.359-10.993,0.297-16.445,0.867
	c-5.636,0.589-6.063,1.424-4.69,7.063c2.274,9.343,4.268,18.777,7.062,27.965c4.673,15.369,9.475,30.723,14.984,45.805
	c5.181,14.181,12.178,27.524,22.128,39.106c0.708,0.823,1.105,1.914,2.051,3.603c-3.563,1.337-6.82,2.343-9.863,3.797
	c-1.366,0.653-3.364,2.303-3.269,3.332c0.766,8.256,1.952,16.473,3.065,24.694c0.047,0.342,0.646,0.607,0.921,0.849
	c0.319-0.087,0.62-0.129,0.62-0.175c0.039-5.44,4.188-8.979,6.172-13.503c2.12-4.837,4.075-9.827,5.354-14.938
	c4.024-16.091,8.229-32.17,11.315-48.452c1.997-10.528,2.159-21.405,3.238-33.158c3.707,1.103,8.084,1.81,11.901,3.667
	c7.141,3.473,13.794,8.519,22.47,3.703c-3.993,5.377-9.014,8.97-15.42,9.524c-6.25,0.541-12.583,0.118-19.218,0.118
	c1.183,6.08,1.846,11.527,3.329,16.742c5.168,18.167,10.093,36.435,16.205,54.289c2.723,7.952,7.93,15.085,12.253,22.446
	c2.419,4.118,1.879,6.616-2.731,7.571c-2.963,0.613-3.899,2.096-3.823,4.78c0.075,2.665,0.039,5.336,0.21,7.994
	c0.223,3.471,0.601,6.932,1.998,10.579c0.292-1.389,1.416-1.91,2.017-3.148c0.97-1.998,0.083-7.896,3.282-8.353
	c2.742-0.686,3.97,5.985,5.509,6.578c7.428,2.858,3.393,7.995,4.223,13.571c0.758,5.092,1.924,10.322,1.413,15.339
	c-0.405,3.98-2.445,8.203-4.899,11.459c-2.947,3.911-3.819,7.714-3.445,12.428c1.425,17.919,2.54,35.862,3.919,53.785
	c0.089,1.158,1.184,2.57,2.213,3.275c11.741,8.031,22.041,17.538,29.922,29.434c1.445,2.181,2.506,5.108,2.487,7.682
	c-0.081,11.489-0.56,22.979-1.055,34.46c-0.072,1.681-1.01,3.324-1.672,5.374c10.955,7.366,25.056,6.809,39.232,9.349
	c-5.26,7.64-10.039,14.66-14.913,21.614c-1.594,2.274-4.176,4.143-4.954,6.621c-0.793,2.523-0.637,5.856,0.354,8.335
	c3.314,8.289,7.232,16.335,10.811,24.521c0.692,1.585,0.894,3.385,1.668,6.462c-8.755-3.167-16.681-5.427-24.045-8.883
	c-6.355-2.982-12.279-7.038-18.007-11.159c-4.866-3.5-6.864-8.839-6.871-14.831c-0.017-14.966-0.006-29.932-0.006-44.896
	c-0.417-0.007-0.834-0.013-1.25-0.019c0,8.469,0,16.938,0,26.557c-11.865-7.638-23.758-12.089-38.243-10.394
	c0,6.232-0.133,12.65,0.049,19.06c0.114,4.013-1.37,6.113-5.231,7.797c-25.76,11.229-52.251,20.112-79.461,27.188
	c-30.628,7.964-61.604,13.636-93.059,16.73c-15.396,1.515-30.848,3.525-46.269,3.485c-18.929-0.05-37.932-1.288-56.757-3.346
	c-18.475-2.02-36.971-4.807-55.092-8.885c-25.242-5.681-50.271-12.433-75.145-19.582c-15.917-4.574-31.415-10.625-47.018-16.243
	c-1.35-0.486-2.903-2.657-2.96-4.102c-0.297-7.468-0.138-14.955-0.138-22.175c-14.746-1.954-28.416,0.481-41.417,10.208
	c0-9.454,0-17.842,0-26.229c-0.475-0.009-0.95-0.017-1.425-0.025c0,1.482,0.006,2.965-0.001,4.448
	c-0.055,11.666-0.753,23.373-0.001,34.986c0.875,13.525-5.944,21.775-16.955,27.108c-10.063,4.874-20.662,8.646-31.025,12.903
	c-0.372-0.394-0.744-0.787-1.116-1.18c1.888-4.81,3.67-9.664,5.691-14.417c2.397-5.638,4.962-11.205,7.527-16.77
	c1.292-2.804,1.16-4.938-0.911-7.695c-6.638-8.839-12.774-18.055-19.659-27.919c13.757-1.672,27.298-1.888,39.021-8.64
	c-0.42-3.944-0.952-7.668-1.189-11.411c-0.525-8.312-0.656-16.657-1.425-24.944c-0.533-5.741,1.586-10.457,4.834-14.631
	c8.25-10.599,17.579-20.103,29.389-26.868c1.881-1.077,3.111-2.201,3.225-5.129c0.566-14.617,1.73-29.211,2.703-43.812
	c0.155-2.322,0.302-4.653,0.631-6.955c0.697-4.87-0.301-9.01-3.77-12.815c-3.937-4.32-6.643-8.929-5.181-15.672
	c1.818-8.384,2.1-17.101,3.127-26.414c4.515,0.322,8.417,0.601,12.806,0.914c0-4.383,0.367-9.532-0.218-14.571
	c-0.181-1.564-2.941-2.83-5.441-5.048c0.233-0.82,0.3-3.141,1.429-4.688c8.201-11.253,13.278-23.894,16.662-37.236
	c4.234-16.694,8.464-33.403,12.015-50.25c1.346-6.385,0.797-13.17,1.119-19.911c5.985-1.497,11.086,0.423,15.239,3.6
	c6.061,4.637,12.32,4.987,19.41,2.75c-4.545,6.967-13.553,10.56-21.375,9.611c-3.978-0.482-8.122,0.41-12.786,0.721
	c0.956,7.473,1.43,14.266,2.755,20.887c2.542,12.699,5.27,25.379,8.515,37.912c1.732,6.692,4.592,13.108,7.18,19.554
	c0.926,2.308,2.278,4.007,5.71,3.059c1.953-0.538,4.51,1.11,7.147,1.877c-0.284,2.169-0.554,4.236-0.824,6.303
	c0.308,0.293,0.616,0.586,0.924,0.879c0.875-1.045,2.411-2.024,2.521-3.146c0.85-8.602,1.423-17.23,2.069-25.684
	c-3.51-1.646-6.6-3.094-10.04-4.706c24.193-37.087,32.273-79.271,42.139-121.162c6.923,32.507,13.46,65.125,26.976,95.776
	c1.266-4.382,1.215-8.217-1.405-12.492c-2.198-3.589-3.04-8.268-3.542-12.574c-0.693-5.937,0.47-12.226-0.988-17.896
	c-1.225-4.767-4.609-9.241-7.877-13.14c-2.774-3.31-2.339-5.195-0.045-8.522c7.3-10.592,14.124-21.514,20.987-32.4
	c0.893-1.417,0.94-3.368,1.088-3.943c-11.516,1.1-22.953,2.193-34.425,3.289c0-5.914,0-11.463,0-17.101
	c7.569-1.381,13.586,1.578,19.681,4.135c0.762,0.32,1.406,0.941,2.178,1.212c13.66,4.795,15.562,3.931,19.167-9.19
	c3.815-13.885,8.059-27.653,12.08-41.482c0.942-3.241,1.283-6.313-3.241-7.114l0.052,0.035c2.302-4.712,4.604-9.424,7.584-15.526
	c3.074-0.688,7.675,0.103,11.964,2.537c5.622,3.191,11.289,5.551,18.124,3.021c-2.005,1.813-3.743,4.159-6.071,5.325
	c-4.406,2.206-11.743,5.706-13.167,2.79c-3.313,0.321-7.64,0.74-11.966,1.159c-0.334,0.564-0.669,1.129-1.003,1.694
	c1.417,2.087,16.881,61.967,30.977,83.584c0.307-5.611,0.999-11.24,0.724-16.822c-0.105-2.138-1.957-4.997-3.837-6.042
	c-2.532-1.407-3.197-2.694-2.923-5.401c0.687-6.771,1.062-13.573,1.568-20.433c2.244-0.619,4.273-1.178,6.505-1.793
	c-0.53-4.316,2.036-9.279-4.026-11.583c-0.54-0.205-0.76-2.469-0.415-3.547c0.854-2.67,2.077-5.228,3.236-7.792
	c1.611-3.565,3.547-15.86,3.994-14.26c8.826-25.353,11.718-51.593,13.211-79.194c4.407,1.408,8.608,2.014,12.003,3.999
	c5.923,3.461,11.534,6.694,18.601,2.79c-7.459,11.438-19.664,7.972-30.777,9.373c3.512,20.431,6.475,40.083,10.427,59.534
	c1.701,8.373,5.305,16.385,8.345,24.448c1.204,3.195,2.368,5.673-2.329,6.715c-0.885,0.196-1.948,1.742-2.075,2.77
	c-0.304,2.456-0.098,4.974-0.098,7.473c6.885,0.46,7.527,1.084,7.74,8.317c0.113,3.829-0.033,7.664,0.002,11.496
	c0.036,3.881-0.422,7.223-5.179,8.323c-1.165,0.27-2.368,2.227-2.743,3.625c-0.549,2.05-0.415,4.294-0.485,6.458
	c-0.064,1.977-0.265,17.947-0.265,22.021c40.144-6.324,37.478-11.991,38.811-36.324c-0.371-0.248,2.667-15.667-8-16.333
	c0.761-6.357,0.445-32,4.404-39.895c8.441,2.217,16.219,4.261,24.542,6.448c0-2.986-0.059-5.104,0.015-7.216
	c0.091-2.591,0.977-4.688-1.628-5.337c-3.077-0.766-5.333-0.333-10.897-4.812c19.167-45.145,28.769-92.171,34.692-140.08"/>
<path fill-rule="evenodd" clip-rule="evenodd" d="M655.454,143.642c-2.454,0.692-2.184,1.881-3.126,2.969
	c-0.396,0.457-0.486,1.178-0.805,2.012c-2.519-0.466-8.909-1.135-11.356-0.956c-6.834,0.5-0.727-4.803,0.134-7.974
	c1.766-6.514,3.916-13.083,4.397-19.739c0.408-5.633-1.313-11.42-2.092-17.139c-0.439-0.982-0.439-0.982-1.607-0.059
	c-2.512,3.778-5.246,7.431-7.474,11.369c-2.277,4.026-4.058,8.333-6.122,12.656c-2.315-5.121-4.49-9.928-6.664-14.735
	c-0.239-1.379-1.406-1.212-1.688,0.458c-0.645,2.894-1.154,5.828-2.007,8.66c-0.314,1.049,0.027,2.909-0.712,3.837
	c-3.666,0.667-5.166,3.5-4.666,6.667c0.073,0.463-2.334,1.5-2,4.5c-0.876,0.876,0.129,3.172,2.796,4.172
	c1.756,0.658-1.796,2.994,2.56,6.51c1.162,0.938,2.238,1.357,2.456,1.273c0.006-0.041,0.017-0.083,0.021-0.123
	c0.047,0.069,0.026,0.104-0.021,0.123c-0.651,4.548-5.126,10.393-9.812,12.877c-2.506,2.067-8.679-4.247-10.93-5.744l-4.987-19.72
	l-0.573,0.401l4.799,19.036c-0.021,0.013-0.041,0.025-0.053,0.049c-1.862,1.334,9.684,10.869,11.077,10.311
	c2.5-1,8.282-4.358,13.571-11.343c0.929,4.51,4.448,2.577,6.725,3.895c-0.841,1.104-1.908,1.786-2.629,2.615
	c-0.7,0.806-0.89,1.503-1.74,2.539c4.155,4.813,4.709,5.021,2.753,10.222c-2.639,7.013-0.792,15.301-6.511,21.512
	c-0.962,1.045,0.143,4.339,0.905,6.364c0.174,0.46,3.416,0.562,4.331-0.23c1.618-1.399,3.559-3.62,3.544-5.481
	c-0.038-4.606,2.312-7.684,4.77-11.068c1.501-2.065,1.938-4.87,3.187-7.159c2.46-4.507,5.428-13.865,10.095-14.032
	c3.251-3.786,1-7.376-3.798-9.009c-2.799-0.953-5.875-1.091-8.827-1.596c2.865-1.211,5.74-1.474,8.618-1.686
	c4.13-0.304,8.331-0.234,12.353-1.053c1.241-0.252,2.876-1.823,2.87-4.474C657.215,145.063,655.598,143.601,655.454,143.642z"/>
<path fill-rule="evenodd" clip-rule="evenodd" fill="none" stroke="#ED1C24" stroke-width="4" stroke-miterlimit="10" d="
	M654.346,149.823c50.057,1.959,52.812,51.596,50.057,63.853C666.74,381.208,258.049-119.958,147.26,102.071
	c-42.728,85.63,19.48,214.202,419.48,203.983c136.326-3.482,240.7,163.379,125.855,250.569"/>
</svg>
